    <svg width="181.5" height="95.4" viewBox="0 0 181.5 95.4" xmlns="http://www.w3.org/2000/svg"><g id="svgGroup" stroke-linecap="round" fill-rule="evenodd" font-size="9pt" stroke="#000" stroke-width="0.25mm" fill="#EDEDED" style="stroke:#EDEDED;stroke-width:0.25mm;fill:#EDEDED"><path d="M 59.2 14.2 L 67.3 7.5 Q 68.4 6.7 69.4 5.95 Q 70.4 5.2 71.3 4.4 Q 71.6 4.1 71.85 3.8 A 1.864 1.864 0 0 1 72.265 3.435 A 2.336 2.336 0 0 1 72.5 3.3 Q 73.494 2.397 75.426 1.371 A 30.748 30.748 0 0 1 75.85 1.15 A 15.077 15.077 0 0 1 77.12 0.569 Q 78.42 0.05 79.412 0.004 A 4.101 4.101 0 0 1 79.6 0 A 2.228 2.228 0 0 1 79.995 0.032 Q 80.7 0.159 80.7 0.8 Q 80.7 1.162 80.618 1.278 A 0.165 0.165 0 0 1 80.6 1.3 Q 80.153 2.552 79.385 4.405 A 129.146 129.146 0 0 1 79.2 4.85 Q 78.3 7 77.25 9.05 A 16.608 16.608 0 0 1 76.556 10.282 Q 75.839 11.428 75.1 12.1 A 1.332 1.332 0 0 1 74.65 12.4 A 2.387 2.387 0 0 0 74.422 12.507 Q 74.269 12.587 74.1 12.7 Q 73.595 13.037 73.479 13.374 A 0.632 0.632 0 0 0 73.45 13.5 Q 73.407 13.848 73.174 14.423 A 9.425 9.425 0 0 1 73.1 14.6 A 28.84 28.84 0 0 1 71.684 17.4 A 31.807 31.807 0 0 1 71.45 17.8 Q 70.5 19.4 69.6 21 Q 67.7 24.7 65.85 28.55 Q 64 32.4 62.4 36.4 L 66.2 36.4 L 68.15 36.4 Q 69.1 36.4 70 36.5 A 1.19 1.19 0 0 1 70.128 36.508 Q 70.255 36.522 70.43 36.56 A 5.828 5.828 0 0 1 70.6 36.6 Q 70.799 36.65 70.899 36.749 A 0.339 0.339 0 0 1 71 37 Q 71 37.3 70.4 37.45 A 12.429 12.429 0 0 0 70.141 37.518 Q 69.816 37.606 69.655 37.675 A 1.005 1.005 0 0 0 69.6 37.7 A 190.794 190.794 0 0 0 68.084 37.946 Q 67.414 38.058 66.68 38.183 A 340.991 340.991 0 0 0 65.15 38.45 Q 62.6 38.9 61.1 40.3 Q 57.2 50.3 57.2 61.3 L 57.2 62 A 2.204 2.204 0 0 0 57.217 62.26 Q 57.232 62.387 57.26 62.527 A 4.231 4.231 0 0 0 57.3 62.7 Q 58.5 62.8 59.7 62.85 Q 60.9 62.9 62.2 62.9 A 23.585 23.585 0 0 0 63.562 62.862 A 21.484 21.484 0 0 0 63.75 62.85 Q 64.5 62.8 65.2 62.8 Q 65.744 62.8 65.918 63.031 A 0.434 0.434 0 0 1 66 63.3 A 1.673 1.673 0 0 1 65.914 63.794 Q 65.687 64.52 64.859 65.639 A 15.492 15.492 0 0 1 64.85 65.65 Q 63.965 66.842 63.347 67.413 A 3.628 3.628 0 0 1 63 67.7 Q 62 68.4 60.8 68.8 Q 59.6 69.2 58.3 69.2 A 9.473 9.473 0 0 1 56.792 69.088 Q 55.263 68.841 54.3 68.05 A 4.376 4.376 0 0 1 53.279 66.804 Q 52.947 66.217 52.711 65.467 A 10.692 10.692 0 0 1 52.4 64.2 A 75.552 75.552 0 0 1 49.606 63.905 Q 48.063 63.714 46.337 63.448 A 141.783 141.783 0 0 1 44.2 63.1 A 143.941 143.941 0 0 1 36.981 61.675 A 161.199 161.199 0 0 1 34.5 61.1 Q 29.5 59.9 25.1 58.25 Q 21.336 56.839 18.67 55.098 A 21.837 21.837 0 0 1 17.8 54.5 Q 14.8 57.7 11.85 61.25 Q 8.9 64.8 6.7 68.7 Q 4.5 72.6 3.7 77.1 L 3.7 78 A 7.444 7.444 0 0 0 3.753 78.867 A 9.349 9.349 0 0 0 3.85 79.5 Q 4 80.3 4 81.1 Q 4 82.132 3.181 82.345 A 1.915 1.915 0 0 1 2.7 82.4 A 2.021 2.021 0 0 1 1.061 81.609 A 3.261 3.261 0 0 1 0.7 81.05 Q 0.168 80.024 0.04 79.143 A 3.783 3.783 0 0 1 0 78.6 A 2.073 2.073 0 0 1 0.006 78.443 Q 0.012 78.368 0.023 78.282 A 4.728 4.728 0 0 1 0.05 78.1 Q 0.1 77.8 0.1 77.5 A 29.466 29.466 0 0 1 2.023 70.96 A 25.968 25.968 0 0 1 3.35 68.3 Q 5.7 64.2 8.9 60.55 Q 12.1 56.9 15.5 53.4 A 30.994 30.994 0 0 1 13.363 51.282 A 40.018 40.018 0 0 1 11.7 49.35 A 9.227 9.227 0 0 1 10.435 47.323 A 7.086 7.086 0 0 1 9.8 44.4 A 6.029 6.029 0 0 1 10.202 42.161 A 5.489 5.489 0 0 1 11.9 39.9 A 12.284 12.284 0 0 1 14.609 38.257 A 16.882 16.882 0 0 1 17.2 37.35 A 38.819 38.819 0 0 1 23.464 36.24 A 42.739 42.739 0 0 1 23.9 36.2 A 88.97 88.97 0 0 1 27.027 35.985 Q 28.502 35.911 29.825 35.901 A 53.585 53.585 0 0 1 30.2 35.9 Q 31.3 35.9 32.25 35.95 Q 33.2 36 33.9 36 Q 40.1 30.4 46.45 24.95 Q 52.8 19.5 59.2 14.2 Z M 172 46.9 L 172.4 45 Q 171.1 46.7 168.85 49.6 A 116.737 116.737 0 0 1 165.25 54.006 A 132.874 132.874 0 0 1 163.95 55.5 A 41.848 41.848 0 0 1 161.037 58.497 A 32.589 32.589 0 0 1 158.6 60.55 Q 155.969 62.548 153.907 62.599 A 4.352 4.352 0 0 1 153.8 62.6 Q 152.147 62.6 151.534 61.229 A 3.061 3.061 0 0 1 151.5 61.15 Q 150.9 59.7 150.9 58.3 Q 150.9 54.5 152.6 51.05 Q 154.3 47.6 156 44.4 L 155.7 44.5 A 0.864 0.864 0 0 1 155.463 44.47 Q 155.1 44.366 155.1 43.9 Q 155.1 43.8 155.3 43.4 Q 156.194 41.75 156.898 40.431 A 344.03 344.03 0 0 0 157.5 39.3 A 6.981 6.981 0 0 1 158.702 37.641 A 6.084 6.084 0 0 1 159.9 36.7 A 5.053 5.053 0 0 1 161.057 36.206 Q 162.226 35.857 163.928 35.808 A 19.836 19.836 0 0 1 164.5 35.8 A 1.052 1.052 0 0 1 164.723 35.822 Q 165.044 35.891 165.092 36.19 A 0.702 0.702 0 0 1 165.1 36.3 A 1.928 1.928 0 0 1 165.031 36.769 Q 164.825 37.575 164 39 A 70.954 70.954 0 0 1 161.922 42.363 A 78.246 78.246 0 0 1 161.6 42.85 Q 160.403 44.646 159.884 45.466 A 30.632 30.632 0 0 0 159.8 45.6 A 16.06 16.06 0 0 0 159.272 46.454 Q 158.744 47.367 158.11 48.665 A 59.756 59.756 0 0 0 157.9 49.1 A 47.797 47.797 0 0 0 156.205 53.087 A 43.391 43.391 0 0 0 156 53.65 A 19.685 19.685 0 0 0 155.587 54.942 Q 155.241 56.181 155.204 57.09 A 5.238 5.238 0 0 0 155.2 57.3 Q 155.2 57.8 155.4 58.25 Q 155.6 58.7 156.2 58.7 Q 157.5 58.7 159.5 57.15 A 27.732 27.732 0 0 0 161.288 55.631 Q 162.169 54.82 163.085 53.858 A 47.25 47.25 0 0 0 163.7 53.2 Q 165.9 50.8 168 48.15 A 107.852 107.852 0 0 0 169.962 45.601 A 78.384 78.384 0 0 0 171.65 43.25 Q 172.928 41.396 173.628 40.186 A 18.101 18.101 0 0 0 173.9 39.7 Q 174.7 38.3 175 36.75 A 3.538 3.538 0 0 1 176.103 34.806 A 5.184 5.184 0 0 1 176.9 34.2 Q 177.381 33.925 178.052 33.626 A 22.937 22.937 0 0 1 178.7 33.35 Q 179.8 32.9 180.5 32.9 Q 181.294 32.9 181.457 33.53 A 1.473 1.473 0 0 1 181.5 33.9 Q 181.5 35.291 180.562 36.731 A 7.83 7.83 0 0 1 180.55 36.75 A 71.799 71.799 0 0 0 179.688 38.096 Q 179.288 38.739 178.945 39.322 A 43.419 43.419 0 0 0 178.9 39.4 A 20.334 20.334 0 0 0 178.089 41.137 Q 177.648 42.202 177.25 43.45 Q 176.5 45.8 175.9 47.8 Q 174.3 52.2 172.85 56.65 Q 171.4 61.1 169.4 65.5 L 171.4 65.5 A 11.751 11.751 0 0 1 172.903 65.594 A 10.86 10.86 0 0 1 172.95 65.6 A 1.738 1.738 0 0 1 173.224 65.657 Q 173.361 65.699 173.459 65.762 A 0.492 0.492 0 0 1 173.7 66.2 A 0.43 0.43 0 0 1 173.492 66.566 Q 173.303 66.696 172.944 66.761 A 3.572 3.572 0 0 1 172.65 66.8 Q 171.6 66.9 170.45 66.85 A 119.894 119.894 0 0 0 169.952 66.829 Q 169.381 66.807 169.068 66.802 A 10.152 10.152 0 0 0 168.9 66.8 Q 166.9 71.6 163.85 76.65 Q 160.8 81.7 156.75 85.95 Q 152.7 90.2 147.75 92.8 A 22.934 22.934 0 0 1 137.084 95.399 A 26.675 26.675 0 0 1 136.9 95.4 Q 134.2 95.4 131.3 94.45 A 12.192 12.192 0 0 1 127.491 92.434 A 11.45 11.45 0 0 1 126.4 91.45 A 6.962 6.962 0 0 1 124.449 87.175 A 9.439 9.439 0 0 1 124.4 86.2 Q 124.4 83.3 126.05 80.9 A 18.518 18.518 0 0 1 129.159 77.441 A 21.801 21.801 0 0 1 130.25 76.55 Q 132.8 74.6 135.6 73.1 Q 137.853 71.893 139.718 71.075 A 37.866 37.866 0 0 1 140.6 70.7 A 57.363 57.363 0 0 1 148.796 68.058 A 67.965 67.965 0 0 1 152.85 67.2 A 121.897 121.897 0 0 1 160.909 66.013 A 102.298 102.298 0 0 1 165.5 65.6 Q 167.3 61 169.15 56.4 Q 171 51.8 172 46.9 Z M 91.4 8.4 L 95.1 2.7 A 2.307 2.307 0 0 1 95.613 2.323 Q 96.12 2.041 96.9 1.855 A 8.777 8.777 0 0 1 97.15 1.8 A 22.01 22.01 0 0 1 97.914 1.655 Q 98.656 1.529 99.175 1.505 A 5 5 0 0 1 99.4 1.5 Q 99.8 1.5 100.9 1.65 Q 102 1.8 102 2.5 A 0.426 0.426 0 0 1 101.971 2.653 A 0.523 0.523 0 0 1 101.95 2.7 L 101.9 2.8 Q 100.9 4.4 99.8 5.9 L 97.6 8.9 Q 93.6 14.9 90 21.15 Q 86.4 27.4 82.9 33.7 Q 82.364 34.772 81.506 36.401 A 309.449 309.449 0 0 1 80.95 37.45 Q 79.7 39.8 78.75 42.15 A 17.555 17.555 0 0 0 78.249 43.546 Q 78.032 44.25 77.919 44.871 A 6.946 6.946 0 0 0 77.8 46.1 L 77.8 46.4 Q 79.7 44.6 82.75 41.95 Q 85.8 39.3 88.95 36.8 A 59.381 59.381 0 0 1 90.816 35.374 Q 92.756 33.956 94.2 33.2 A 3.807 3.807 0 0 1 95.542 32.822 A 4.675 4.675 0 0 1 96 32.8 A 2.829 2.829 0 0 1 96.274 32.815 Q 96.603 32.847 97.05 32.95 Q 97.637 33.086 97.694 33.588 A 0.996 0.996 0 0 1 97.7 33.7 A 1.304 1.304 0 0 1 97.563 34.262 Q 97.37 34.668 96.906 35.103 A 5.24 5.24 0 0 1 96.8 35.2 A 12.729 12.729 0 0 1 94.937 36.568 A 14.042 14.042 0 0 1 94.8 36.65 Q 93.741 37.276 93.238 37.577 A 84.881 84.881 0 0 0 93.2 37.6 A 130.245 130.245 0 0 0 88.458 40.565 A 155.838 155.838 0 0 0 85.5 42.55 Q 81.5 45.3 78.3 48.1 A 15.216 15.216 0 0 0 78.531 48.861 Q 78.834 49.778 79.35 51.05 A 31.245 31.245 0 0 0 80.547 53.641 A 37.135 37.135 0 0 0 81.2 54.85 Q 82.3 56.8 83.55 58.15 Q 84.371 59.037 85.213 59.341 A 2.593 2.593 0 0 0 86.1 59.5 A 2.883 2.883 0 0 0 88.169 58.638 A 3.946 3.946 0 0 0 88.35 58.45 A 12.542 12.542 0 0 0 89.737 56.586 A 14.414 14.414 0 0 0 90.05 56.05 A 56.724 56.724 0 0 0 90.577 55.08 Q 90.859 54.548 91.095 54.072 A 30.709 30.709 0 0 0 91.3 53.65 Q 91.681 52.85 91.946 52.66 A 0.269 0.269 0 0 1 92.1 52.6 A 0.263 0.263 0 0 1 92.103 52.6 Q 92.269 52.602 92.33 52.812 A 0.755 0.755 0 0 1 92.35 52.9 Q 92.4 53.2 92.4 53.3 A 1.342 1.342 0 0 1 92.384 53.491 Q 92.354 53.697 92.266 53.991 A 7.22 7.22 0 0 1 92.2 54.2 A 50.008 50.008 0 0 1 91.188 56.956 A 56.632 56.632 0 0 1 90.8 57.9 A 10.018 10.018 0 0 1 89.549 60.088 A 8.775 8.775 0 0 1 88.65 61.1 A 4.509 4.509 0 0 1 86.469 62.246 A 6.646 6.646 0 0 1 85 62.4 A 5.265 5.265 0 0 1 81.847 61.337 A 7.847 7.847 0 0 1 80.65 60.25 A 17.326 17.326 0 0 1 77.663 55.626 A 19.641 19.641 0 0 1 77.5 55.25 Q 76.657 53.248 76.209 51.665 A 16.631 16.631 0 0 1 75.9 50.4 Q 74.6 51.9 73.4 53.6 Q 72.2 55.3 71.1 57 Q 71.1 57.1 71.15 57.25 Q 71.197 57.391 71.2 57.575 A 1.564 1.564 0 0 1 71.2 57.6 A 4.016 4.016 0 0 1 70.933 59.007 Q 70.741 59.523 70.41 60.054 A 7.476 7.476 0 0 1 70.25 60.3 Q 69.3 61.7 67.9 62.6 A 6.118 6.118 0 0 1 66.675 63.215 A 4.605 4.605 0 0 1 65.1 63.5 A 1.052 1.052 0 0 1 64.877 63.479 Q 64.556 63.409 64.508 63.11 A 0.702 0.702 0 0 1 64.5 63 Q 65 62.2 65.55 61.4 Q 66.1 60.6 66.5 59.9 Q 68.3 56.4 70 52.9 Q 71.7 49.4 73.6 46 A 12.214 12.214 0 0 0 73.523 45.586 Q 73.422 45.088 73.25 44.4 Q 73 43.4 73 42.9 Q 73 41.6 74.1 41.05 A 11.424 11.424 0 0 1 74.961 40.661 Q 75.396 40.487 75.794 40.377 A 6.136 6.136 0 0 1 76.1 40.3 Q 79.5 32.6 83.25 25.1 Q 87 17.6 91.5 10.6 A 2.794 2.794 0 0 1 91.244 9.783 A 3.718 3.718 0 0 1 91.2 9.2 Q 91.2 9 91.25 8.8 Q 91.3 8.6 91.4 8.4 Z M 98.7 63.4 Q 97.6 63.4 96.45 63.1 Q 95.3 62.8 94.4 62.1 Q 94.3 62.3 94.1 62.6 A 0.646 0.646 0 0 1 93.632 62.891 A 0.942 0.942 0 0 1 93.5 62.9 A 1.421 1.421 0 0 1 93.488 62.9 Q 92.774 62.894 92.221 62.169 A 3.222 3.222 0 0 1 92.1 62 Q 91.713 61.42 91.576 60.922 A 1.961 1.961 0 0 1 91.5 60.4 A 1.359 1.359 0 0 1 91.51 60.235 Q 91.522 60.134 91.55 60.05 A 1.304 1.304 0 0 0 91.576 59.961 Q 91.588 59.916 91.594 59.876 A 0.519 0.519 0 0 0 91.6 59.8 A 32.284 32.284 0 0 1 92.5 56.849 Q 93.032 55.35 93.75 53.71 A 59.493 59.493 0 0 1 94.25 52.6 A 2964.699 2964.699 0 0 1 95.574 49.741 Q 96.1 48.608 96.581 47.573 A 1687.326 1687.326 0 0 1 97.5 45.6 Q 101.6 36.7 105.95 27.9 Q 110.3 19.1 115.2 10.6 A 2.794 2.794 0 0 1 114.944 9.783 A 3.718 3.718 0 0 1 114.9 9.2 Q 114.9 8.7 115.1 8.4 A 26.558 26.558 0 0 1 115.278 8.109 Q 115.522 7.713 115.933 7.068 A 221.272 221.272 0 0 1 116.2 6.65 Q 117 5.4 117.8 4.2 L 118.8 2.7 Q 119.239 2.173 120.411 1.877 A 8.09 8.09 0 0 1 120.75 1.8 A 22.01 22.01 0 0 1 121.514 1.655 Q 122.256 1.529 122.775 1.505 A 5 5 0 0 1 123 1.5 Q 123.38 1.5 124.077 1.587 A 26.059 26.059 0 0 1 124.55 1.65 Q 125.008 1.716 125.267 1.886 A 0.696 0.696 0 0 1 125.6 2.5 A 1.374 1.374 0 0 1 125.597 2.594 Q 125.587 2.736 125.545 2.78 A 0.06 0.06 0 0 1 125.5 2.8 Q 123 6.5 120.45 10.15 Q 117.9 13.8 115.6 17.6 Q 110.8 25.5 106.75 33.75 Q 102.7 42 99.2 50.6 Q 100.272 49.299 101.93 47.235 A 809.666 809.666 0 0 0 103 45.9 A 100.356 100.356 0 0 1 106.708 41.536 A 116.5 116.5 0 0 1 108.3 39.8 A 45.988 45.988 0 0 1 111.381 36.789 A 35.591 35.591 0 0 1 114.1 34.6 A 16.014 16.014 0 0 1 115.676 33.585 Q 117.516 32.557 119.032 32.503 A 4.696 4.696 0 0 1 119.2 32.5 Q 120.272 32.5 120.766 32.874 A 1.073 1.073 0 0 1 120.95 33.05 A 1.593 1.593 0 0 1 121.205 33.514 Q 121.4 34.044 121.4 34.9 Q 121.4 36.299 120.977 38.061 A 22.345 22.345 0 0 1 120.7 39.1 Q 120 41.5 119.3 43.2 Q 119.7 43 120.6 42.6 Q 121.483 42.207 121.885 42.2 A 0.828 0.828 0 0 1 121.9 42.2 Q 122.282 42.2 122.299 42.473 A 0.421 0.421 0 0 1 122.3 42.5 Q 122.3 43.2 120.802 43.699 A 12.375 12.375 0 0 1 120.8 43.7 L 118.7 44.4 A 52.236 52.236 0 0 1 117.817 46.343 Q 117.345 47.33 116.784 48.416 A 92.179 92.179 0 0 1 116.4 49.15 Q 115 51.8 113.35 54.2 Q 111.7 56.6 109.9 58.2 Q 108.3 59.6 106.3 60.2 Q 104.3 60.8 102.4 61.7 A 13.195 13.195 0 0 0 101.703 62.107 Q 101.094 62.489 100.7 62.85 A 1.738 1.738 0 0 1 100.141 63.184 Q 99.578 63.4 98.7 63.4 Z M 141.6 62.8 Q 138.9 62.8 138 60.65 A 11.285 11.285 0 0 1 137.114 56.849 A 10.722 10.722 0 0 1 137.1 56.3 Q 137.1 53.8 137.5 51.3 Q 137.9 48.8 138.4 46.4 A 20.521 20.521 0 0 1 137.658 47.559 Q 136.846 48.749 135.614 50.287 A 76.156 76.156 0 0 1 135.2 50.8 A 76.036 76.036 0 0 1 131.779 54.707 A 88.494 88.494 0 0 1 130.3 56.25 A 39.08 39.08 0 0 1 127.247 59.059 A 31.153 31.153 0 0 1 124.85 60.85 A 15.036 15.036 0 0 1 123.235 61.806 Q 122.403 62.225 121.64 62.448 A 5.855 5.855 0 0 1 120 62.7 Q 119.327 62.7 118.922 62.449 A 1.191 1.191 0 0 1 118.45 61.9 A 4.168 4.168 0 0 1 118.134 60.706 A 5.223 5.223 0 0 1 118.1 60.1 A 11.511 11.511 0 0 1 118.218 58.526 Q 118.331 57.713 118.551 56.782 A 29.265 29.265 0 0 1 119.1 54.8 Q 120.1 51.6 121.9 48.05 A 44.449 44.449 0 0 1 125.662 41.889 A 40.94 40.94 0 0 1 125.95 41.5 Q 128.2 38.5 130.65 36.65 A 9.304 9.304 0 0 1 132.384 35.601 Q 133.981 34.871 135.6 35 A 19.039 19.039 0 0 1 137.207 34.222 A 22.337 22.337 0 0 1 138 33.9 A 7.36 7.36 0 0 1 140.031 33.424 A 6.781 6.781 0 0 1 140.6 33.4 A 14.408 14.408 0 0 1 142.519 33.532 A 15.809 15.809 0 0 1 142.65 33.55 Q 143.7 33.7 144.7 33.9 Q 145.2 33.7 145.8 33.5 A 3.779 3.779 0 0 1 146.981 33.3 A 3.602 3.602 0 0 1 147 33.3 A 1.753 1.753 0 0 1 147.422 33.346 Q 147.973 33.483 148.076 34.027 A 1.463 1.463 0 0 1 148.1 34.3 A 1.615 1.615 0 0 1 148.074 34.564 Q 147.996 35.024 147.685 35.885 A 23.542 23.542 0 0 1 147.55 36.25 A 26.283 26.283 0 0 1 146.688 38.272 A 22.77 22.77 0 0 1 146.35 38.95 A 12.164 12.164 0 0 1 146.115 39.382 Q 145.718 40.076 145.429 40.314 A 0.693 0.693 0 0 1 145.3 40.4 A 18.467 18.467 0 0 0 144.639 41.898 Q 144.319 42.712 144.013 43.671 A 40.52 40.52 0 0 0 143.6 45.05 Q 142.8 47.9 142.3 50.9 A 44.533 44.533 0 0 0 141.995 53.024 Q 141.8 54.688 141.8 56 A 8.188 8.188 0 0 0 141.882 57.124 Q 141.959 57.675 142.106 58.277 A 13.772 13.772 0 0 0 142.15 58.45 A 1.999 1.999 0 0 0 142.459 59.133 Q 142.945 59.8 144 59.8 A 4.74 4.74 0 0 0 145.874 59.396 Q 146.51 59.125 147.153 58.67 A 8.954 8.954 0 0 0 147.45 58.45 A 31.013 31.013 0 0 0 149.265 56.942 A 24.2 24.2 0 0 0 150.5 55.75 A 40.739 40.739 0 0 1 150.808 55.434 Q 151.822 54.404 151.999 54.4 A 0.062 0.062 0 0 1 152 54.4 Q 152.2 54.4 152.2 54.6 Q 152.2 55.442 151.324 56.548 A 8.026 8.026 0 0 1 151.2 56.7 Q 150.2 57.9 149 58.95 Q 147.8 60 147.2 60.5 A 15.764 15.764 0 0 1 144.909 61.922 A 17.67 17.67 0 0 1 144.55 62.1 A 6.93 6.93 0 0 1 142.44 62.745 A 6.387 6.387 0 0 1 141.6 62.8 Z M 52.3 62.3 L 52.3 61.8 Q 52.3 55.6 54.35 49.8 Q 56.4 44 58.3 38.4 Q 56.7 38.4 55.05 38.35 Q 53.4 38.3 51.8 38.3 Q 49.1 38.3 45.35 38.5 Q 41.6 38.7 38.05 39.45 A 18.108 18.108 0 0 0 35.412 40.207 Q 34.022 40.731 32.921 41.457 A 10.181 10.181 0 0 0 32.3 41.9 Q 29.1 44.4 25.8 47.05 Q 22.5 49.7 19.6 52.6 A 18.786 18.786 0 0 0 22.482 54.676 Q 23.94 55.539 25.691 56.28 A 32.817 32.817 0 0 0 26.35 56.55 Q 30.5 58.2 35.2 59.4 A 99.425 99.425 0 0 0 43.272 61.117 A 90.552 90.552 0 0 0 44.4 61.3 A 158.529 158.529 0 0 0 47.62 61.769 Q 49.377 62.005 50.93 62.168 A 84.941 84.941 0 0 0 52.3 62.3 Z M 136.5 93.3 Q 141.4 93.3 145.75 90.65 A 34.752 34.752 0 0 0 152.768 84.964 A 39.649 39.649 0 0 0 153.75 83.9 Q 157.4 79.8 160.25 75.25 A 100.977 100.977 0 0 0 162.543 71.412 Q 163.888 69.038 164.9 66.9 A 81.198 81.198 0 0 0 157.968 67.71 A 102.117 102.117 0 0 0 152.9 68.65 Q 146.5 70 141.5 72.6 A 32.851 32.851 0 0 0 139.229 73.81 Q 138.065 74.485 136.803 75.323 A 60.408 60.408 0 0 0 135.95 75.9 Q 132.9 78 130.65 80.75 A 10.354 10.354 0 0 0 129.035 83.427 A 8.664 8.664 0 0 0 128.4 86.7 A 7.12 7.12 0 0 0 128.675 88.738 A 5.132 5.132 0 0 0 130.95 91.7 Q 133.5 93.3 136.5 93.3 Z M 37.7 36.2 L 59.1 36.3 Q 59.9 34.2 60.75 32.1 Q 61.6 30 62.4 28 Q 62.646 27.426 63.296 26.01 A 367.682 367.682 0 0 1 63.6 25.35 A 533.518 533.518 0 0 0 64.317 23.789 Q 64.634 23.098 64.979 22.338 A 964.758 964.758 0 0 0 65.7 20.75 A 533.902 533.902 0 0 0 67.723 16.227 A 485.321 485.321 0 0 0 68 15.6 A 217.859 217.859 0 0 0 68.776 13.816 Q 69.079 13.111 69.347 12.47 A 117.498 117.498 0 0 0 69.85 11.25 Q 70.6 9.4 70.6 9 A 0.3 0.3 0 0 0 70.598 8.967 Q 70.595 8.933 70.582 8.917 A 0.038 0.038 0 0 0 70.55 8.9 L 70.5 8.9 Q 61.8 14.8 53.5 21.8 Q 45.2 28.8 37.7 36.2 Z M 124.643 58.886 A 4.969 4.969 0 0 0 124.7 58.85 Q 125.297 58.466 125.676 58.191 A 9.597 9.597 0 0 0 125.8 58.1 A 36.692 36.692 0 0 0 131.869 52.694 A 30.768 30.768 0 0 0 135.2 48.2 Q 138.6 42.6 141.8 36.2 A 3.335 3.335 0 0 0 141.232 35.981 A 4.089 4.089 0 0 0 140.9 35.9 Q 140.4 35.8 139.9 35.8 A 7.557 7.557 0 0 0 136.875 36.448 A 9.242 9.242 0 0 0 136.15 36.8 A 11.607 11.607 0 0 0 134.274 38.052 A 9.536 9.536 0 0 0 133.1 39.2 A 22.661 22.661 0 0 0 131.548 41.031 Q 130.835 41.962 130.116 43.065 A 43.396 43.396 0 0 0 129.25 44.45 Q 127.3 47.7 125.7 51.15 A 60.437 60.437 0 0 0 124.612 53.632 Q 124.105 54.87 123.719 55.993 A 32.163 32.163 0 0 0 123.3 57.3 L 123.1 57.9 Q 123 58.2 123 58.6 A 1.452 1.452 0 0 0 123.019 58.847 Q 123.098 59.3 123.5 59.3 Q 123.979 59.3 124.643 58.886 Z M 99.6 61.2 Q 101.8 61.2 103.9 59.5 A 20.149 20.149 0 0 0 106.527 56.924 A 24.704 24.704 0 0 0 107.8 55.3 Q 109.6 52.8 111.05 50.25 Q 112.5 47.7 113.3 46 A 28.476 28.476 0 0 0 111.17 46.98 Q 109.306 47.925 107.15 49.3 Q 103.7 51.5 100.65 54.1 Q 98.225 56.167 96.717 58.17 A 16.529 16.529 0 0 0 96 59.2 A 5.91 5.91 0 0 0 97.049 60.297 A 4.006 4.006 0 0 0 99.6 61.2 Z M 100.1 52.4 Q 103.3 50 106.75 48.15 Q 110.2 46.3 113.8 44.7 A 16.086 16.086 0 0 0 114.065 44.141 Q 114.351 43.508 114.7 42.627 A 55.17 55.17 0 0 0 114.75 42.5 Q 115.3 41.1 115.8 39.7 A 13.24 13.24 0 0 0 116.042 38.96 Q 116.252 38.239 116.291 37.724 A 2.97 2.97 0 0 0 116.3 37.5 A 2.115 2.115 0 0 0 116.273 37.148 Q 116.167 36.522 115.638 36.501 A 0.941 0.941 0 0 0 115.6 36.5 A 2.154 2.154 0 0 0 114.865 36.65 Q 113.833 37.029 112.295 38.373 A 21.966 21.966 0 0 0 112.15 38.5 Q 109.9 40.5 107.4 43.25 Q 104.9 46 102.9 48.6 Q 100.9 51.2 100.1 52.4 Z M 17.3 51.5 Q 20.6 48.2 24.1 45.05 Q 27.6 41.9 31 38.7 Q 30.5 38.6 29.95 38.6 L 28.9 38.6 A 17.301 17.301 0 0 0 27.865 38.634 Q 26.701 38.704 25.126 38.919 A 59.552 59.552 0 0 0 24.9 38.95 Q 22.4 39.3 19.95 40.2 Q 17.5 41.1 15.8 42.5 Q 14.1 43.9 14.1 46 A 4.801 4.801 0 0 0 14.9 48.641 A 6.072 6.072 0 0 0 15.15 49 A 24.751 24.751 0 0 0 16.55 50.708 A 20.749 20.749 0 0 0 17.3 51.5 Z M 62.5 64.7 L 62.5 64.6 Q 62.1 64.6 61.55 64.65 A 12.112 12.112 0 0 1 60.785 64.696 A 10.431 10.431 0 0 1 60.5 64.7 Q 59.8 64.7 59.05 64.65 A 23.04 23.04 0 0 0 57.699 64.601 A 25.303 25.303 0 0 0 57.5 64.6 A 6.826 6.826 0 0 0 57.855 65.716 A 8.623 8.623 0 0 0 58.2 66.45 Q 58.641 67.289 59.55 67.387 A 2.322 2.322 0 0 0 59.8 67.4 Q 60.545 67.4 61.291 66.783 A 4.477 4.477 0 0 0 61.6 66.5 A 4.057 4.057 0 0 0 62.065 65.952 Q 62.5 65.326 62.5 64.7 Z" vector-effect="non-scaling-stroke"/></g></svg>